<svg height="14" viewBox="0 0 480.187 480.187" width="14" xmlns="http://www.w3.org/2000/svg"><path d="m243.421 199.48c-62.008-62-130-94.536-151.872-72.672-2.4 2.514-4.166 5.563-5.152 8.896l-.352-.352-20.888 85.6-20.8 85.344-24.656 101.056-15.608 64 92.408-34.968 117.536-44.472 93.768-35.48-.112-.112c3.139-1.001 6.011-2.699 8.4-4.968 21.872-21.872-10.664-89.864-72.672-151.872z" fill="#dd1c4b"/><ellipse cx="203.823" cy="239.049" fill="#d1e3ee" rx="158.777" ry="56" transform="matrix(-.7071 -.7071 .7071 -.7071 178.9146 552.2075)"/><path d="m299.293 359.2c-11.196.196-22.304-2.008-32.576-6.464l-76.64 29-117.576 44.432-63.048 23.856-5.36 21.976 92.408-34.968 117.536-44.472 86.056-32.56z" fill="#b21d48"/><path d="m396.093 296c-.958-.003-1.908-.174-2.808-.504-40.613-15.215-84.514-19.481-127.296-12.368l-28.576 4.76c-4.374.624-8.426-2.416-9.05-6.79-.603-4.226 2.218-8.181 6.41-8.986l28.584-4.8c45.554-7.569 92.297-3.03 135.544 13.16 4.158 1.494 6.317 6.076 4.823 10.234-1.154 3.212-4.218 5.338-7.631 5.294z" fill="#ffbf41"/><path d="m252.093 248c-4.418-.026-7.979-3.629-7.953-8.047.018-3.05 1.768-5.824 4.513-7.153l168-80c3.99-1.9 8.764-.206 10.664 3.784s.206 8.764-3.784 10.664l-168 80c-1.076.503-2.251.76-3.44.752z" fill="#ffbf41"/><path d="m158.541 232c-1.055.002-2.1-.207-3.072-.616-4.078-1.701-6.005-6.385-4.304-10.463v-.001l11.632-27.912c17.897-42.765 22.07-90.033 11.944-135.272-1.038-4.295 1.603-8.617 5.897-9.655 4.295-1.038 8.617 1.603 9.655 5.897.023.095.044.19.064.286 10.848 48.461 6.375 99.095-12.8 144.904l-11.64 27.912c-1.242 2.977-4.15 4.917-7.376 4.92z" fill="#ffbf41"/><circle cx="436.093" cy="312" fill="#d5557e" r="16"/><circle cx="244.093" cy="88" fill="#dd95c1" r="16"/><path d="m172.093 32c-8.837 0-16-7.163-16-16s7.163-16 16-16 16 7.163 16 16-7.163 16-16 16z" fill="#7fcccb"/><g fill="#2276bb"><path d="m396.093 64c-4.418 0-8-3.582-8-8v-8c0-4.418 3.582-8 8-8s8 3.582 8 8v8c0 4.418-3.581 8-8 8z"/><path d="m396.093 24c-4.418 0-8-3.582-8-8v-8c0-4.418 3.582-8 8-8s8 3.582 8 8v8c0 4.418-3.581 8-8 8z"/><path d="m420.093 40h-8c-4.418 0-8-3.582-8-8s3.582-8 8-8h8c4.418 0 8 3.582 8 8s-3.581 8-8 8z"/><path d="m380.093 40h-8c-4.418 0-8-3.582-8-8s3.582-8 8-8h8c4.418 0 8 3.582 8 8s-3.581 8-8 8z"/></g><path d="m67.597 232c-.896-3.424-1.696-6.88-2.44-10.4l-20.8 85.344 1.6 19.512c3.487 41.599 21.357 80.683 50.536 110.536l117.544-44.432c-.64-.2-1.304-.344-1.944-.56-71.275-26.725-125.148-86.379-144.496-160z" fill="#fff"/><path d="m214.037 392.56c-.64-.2-1.304-.344-1.944-.56-7.7-2.915-15.242-6.234-22.592-9.944l-105.872 40.056c4.014 5.206 8.311 10.187 12.872 14.92z" fill="#f6f6e7"/><path d="m340.093 95.832v40.168h-40.168v-40.168z" fill="#c9da53"/><path d="m196.093 240c-4.418-.001-7.999-3.584-7.998-8.002.001-2.266.962-4.425 2.646-5.942l80-72c3.341-2.891 8.393-2.526 11.284.815 2.811 3.248 2.555 8.136-.58 11.073l-80 72c-1.468 1.323-3.375 2.055-5.352 2.056z" fill="#ffbf41"/><g fill="#ffdb43"><path d="m428.093 208c-4.418 0-8-3.582-8-8v-8c0-4.418 3.582-8 8-8s8 3.582 8 8v8c0 4.418-3.581 8-8 8z"/><path d="m456.381 196.28c-2.123.006-4.16-.838-5.656-2.344l-5.656-5.656c-3.069-3.178-2.982-8.243.196-11.312 3.1-2.994 8.015-2.994 11.116 0l5.656 5.656c3.124 3.125 3.123 8.19-.002 11.314-1.499 1.499-3.533 2.342-5.654 2.342z"/><path d="m468.093 168h-8c-4.418 0-8-3.582-8-8s3.582-8 8-8h8c4.418 0 8 3.582 8 8s-3.581 8-8 8z"/><path d="m450.725 145.376c-4.418-.001-7.999-3.583-7.998-8.002 0-2.121.843-4.155 2.342-5.654l5.656-5.656c3.178-3.07 8.242-2.982 11.312.196 2.994 3.1 2.994 8.015 0 11.116l-5.656 5.656c-1.5 1.5-3.534 2.344-5.656 2.344z"/><path d="m428.093 136c-4.418 0-8-3.582-8-8v-8c0-4.418 3.582-8 8-8s8 3.582 8 8v8c0 4.418-3.581 8-8 8z"/><path d="m405.461 145.376c-2.122 0-4.156-.844-5.656-2.344l-5.656-5.656c-3.069-3.178-2.982-8.243.196-11.312 3.1-2.994 8.015-2.994 11.116 0l5.656 5.656c3.124 3.125 3.123 8.19-.002 11.314-1.499 1.499-3.533 2.342-5.654 2.342z"/><path d="m44.093 8 12.36 25.048 27.64 4.016-20 19.496 4.72 27.528-24.72-13-24.72 13 4.72-27.528-20-19.496 27.64-4.016z"/></g><path d="m473.565 433.328c-3.805-13.485-12.566-25.032-24.528-32.328l-3.296-4.944c-18.481-27.637-47.542-46.429-80.328-51.944-4.374-.624-8.426 2.416-9.05 6.79-.603 4.226 2.218 8.181 6.41 8.986 23.648 4.014 45.199 16.028 61.048 34.032-13.325 2.397-24.979 10.4-32 21.976-8.616 15.431-3.091 34.924 12.34 43.54s34.924 3.091 43.54-12.34c3.291-6.353 5.068-13.382 5.192-20.536 8.512 12.363 9.193 28.508 1.752 41.544-2.254 3.8-1.001 8.708 2.799 10.962s8.708 1.001 10.962-2.799c.072-.122.141-.245.207-.371 7.268-12.959 9.051-28.287 4.952-42.568zm-39.816 5.96c-4.27 7.737-14.003 10.547-21.739 6.277-7.737-4.27-10.547-14.003-6.277-21.739.024-.043.048-.087.072-.13 4.721-7.73 12.684-12.912 21.664-14.096 1.391-.038 2.768.282 4 .928 6.752 3.768 7.112 20.104 2.28 28.76z" fill="#2bb3ce"/></svg>
